<?xml version="1.0" encoding="UTF-8" standalone="no"?>
<!-- Created with Inkscape (http://www.inkscape.org/) -->

<svg
   width="200mm"
   height="200mm"
   viewBox="0 0 200 200"
   version="1.1"
   id="svg5"
   xml:space="preserve"
   inkscape:version="1.2.1 (9c6d41e410, 2022-07-14)"
   sodipodi:docname="icon.svg"
   xmlns:inkscape="http://www.inkscape.org/namespaces/inkscape"
   xmlns:sodipodi="http://sodipodi.sourceforge.net/DTD/sodipodi-0.dtd"
   xmlns="http://www.w3.org/2000/svg"
   xmlns:svg="http://www.w3.org/2000/svg"><sodipodi:namedview
     id="namedview7"
     pagecolor="#505050"
     bordercolor="#eeeeee"
     borderopacity="1"
     inkscape:showpageshadow="0"
     inkscape:pageopacity="0"
     inkscape:pagecheckerboard="0"
     inkscape:deskcolor="#505050"
     inkscape:document-units="mm"
     showgrid="false"
     inkscape:zoom="0.914906"
     inkscape:cx="295.65879"
     inkscape:cy="209.85762"
     inkscape:window-width="2560"
     inkscape:window-height="1377"
     inkscape:window-x="-8"
     inkscape:window-y="-8"
     inkscape:window-maximized="1"
     inkscape:current-layer="layer1" /><defs
     id="defs2" /><g
     inkscape:label="Layer 1"
     inkscape:groupmode="layer"
     id="layer1"
     transform="translate(-5,-48.5)"><circle
       style="fill:#3b82f6;fill-opacity:1;stroke-width:9.28092;stroke-dashoffset:7.938"
       id="path989"
       cx="105"
       cy="148.5"
       r="100" /><g
       style="fill:#000000;fill-opacity:1;-ms-transform:rotate(360deg);-webkit-transform:rotate(360deg)"
       id="g55"
       transform="matrix(0.26458333,0,0,0.26458333,30.995962,71.763582)" /><path
       style="fill:#000000;fill-opacity:0.3;stroke-width:0.264583;-ms-transform:rotate(360deg);-webkit-transform:rotate(360deg)"
       d="m 153.32633,133.72743 -14.54071,-13.08655 4.34102,-3.54701 a 21.296577,21.296577 0 0 0 4.85854,-5.69436 c 4.80166,-8.31877 3.4044,-18.531948 -3.47768,-25.41376 -6.88208,-6.881813 -17.09526,-8.279077 -25.41349,-3.477155 a 21.302398,21.302398 0 0 0 -5.69384,4.85828 l -3.54753,4.341018 -13.086559,-14.540441 -0.15319,-0.161661 a 6.3574083,6.3574083 0 0 0 -8.980223,0 l -17.356666,17.35799 0.314854,6.270629 8.759825,7.15856 a 12.85875,12.85875 0 0 1 2.931319,3.41022 c 2.859352,4.95353 2.002895,11.05958 -2.131484,15.19396 -4.134379,4.13438 -10.239375,4.99057 -15.193962,2.13201 a 12.874625,12.874625 0 0 1 -3.413125,-2.93317 l -7.156185,-8.75771 -6.270626,-0.31459 -18.854208,18.85421 a 6.3499999,6.3499999 0 0 0 0,8.98049 l 46.39654,46.39707 a 21.166666,21.166666 0 0 0 29.93443,0 l 47.89355,-47.89461 a 6.3576728,6.3576728 0 0 0 0,-8.97996 z"
       id="path46" /><path
       id="path227"
       style="fill:#ffffff;fill-opacity:1;stroke-width:0.189866"
       d="m 122.34506,136.05209 a 3.7853623,3.7853623 0 0 0 -3.74579,3.17322 l -1.28381,7.70292 a 36.460005,36.460005 0 0 0 -13.20313,7.63137 l -7.322467,-2.74343 a 3.7853623,3.7853623 0 0 0 -4.620197,1.65763 l -6.191418,10.72485 a 3.7859318,3.7859318 0 0 0 0.875164,4.83009 l 6.031595,4.96507 a 36.659555,36.659555 0 0 0 0,15.25234 l -6.032334,4.96545 a 3.7863117,3.7863117 0 0 0 -0.874425,4.83008 l 6.191793,10.72411 a 3.7853623,3.7853623 0 0 0 4.620573,1.65763 l 7.321716,-2.74306 a 36.460005,36.460005 0 0 0 13.20349,7.63136 l 1.28383,7.70294 a 3.7853623,3.7853623 0 0 0 3.74541,3.17321 h 12.38358 a 3.7851724,3.7851724 0 0 0 3.7454,-3.17285 l 1.2842,-7.7033 a 36.461525,36.461525 0 0 0 13.20349,-7.63136 l 7.3217,2.74342 a 3.7855521,3.7855521 0 0 0 4.62021,-1.65762 l 6.19141,-10.72484 a 3.785742,3.785742 0 0 0 -0.87331,-4.82972 l -6.03195,-4.96545 a 36.659555,36.659555 0 0 0 0,-15.25234 l 6.03195,-4.96544 a 3.7861218,3.7861218 0 0 0 0.87443,-4.83009 l -6.19179,-10.7241 a 3.7851724,3.7851724 0 0 0 -4.62095,-1.65763 l -7.32134,2.74305 a 36.461525,36.461525 0 0 0 -13.20311,-7.63137 l -1.28494,-7.70292 a 3.7851724,3.7851724 0 0 0 -3.7454,-3.17322 z m 6.19215,28.85967 a 16.727211,16.727211 0 0 1 16.70823,16.70822 16.708224,16.708224 0 1 1 -16.70823,-16.70822 z" /></g></svg>
